<svg width="750" height="750" viewBox="0 0 750 750" fill="none" xmlns="http://www.w3.org/2000/svg">
<circle cx="375" cy="375" r="375" fill="#414141"/>
<path d="M92.1803 433.425L265.835 240.114C267.501 238.258 270.44 238.364 271.969 240.333L391.504 394.254L514.252 300.911C515.886 299.669 518.196 299.865 519.597 301.365L642.86 433.368C645.247 435.924 643.434 440.098 639.936 440.098H469.698C465.88 440.098 464.232 435.259 467.257 432.929L495.566 411.121C496.265 410.582 497.124 410.29 498.007 410.29H524.539C528.048 410.29 529.856 406.094 527.446 403.543L509.704 384.765C508.313 383.293 506.042 383.092 504.415 384.298L429.095 440.098H351.283C350.123 440.098 349.02 439.594 348.26 438.717L272.043 350.741C270.452 348.905 267.607 348.899 266.008 350.727L189.047 438.731C188.288 439.6 187.19 440.098 186.036 440.098H95.156C91.6947 440.098 89.8672 436 92.1803 433.425Z" fill="white"/>
<path fill-rule="evenodd" clip-rule="evenodd" d="M428.476 441.425H428.632L504.22 384.173C505.861 382.931 508.176 383.136 509.573 384.647L527.565 404.115C529.933 406.677 528.116 410.83 524.628 410.83H497.834C496.936 410.83 496.064 411.132 495.359 411.688L466.67 434.283C463.687 436.632 465.348 441.425 469.145 441.425H640.478C643.955 441.425 645.776 437.295 643.431 434.728L519.505 299.045C518.098 297.505 515.744 297.304 514.097 298.585L392.42 393.183L428.476 441.425Z" fill="#16ADC2"/>
</svg>
